# xmcd
#
# Track frame offsets:
#	150
#	20467
#	33995
#	45140
#	57167
#	70822
#	82622
#	99352
#	116410
#	127755
#	134885
#	147140
#	157475
#	172705
#	185682
#
# Disc length: 2568 seconds
#
# Revision: 0
# Processed by: cddbd v1.4b42PL0 Copyright (c) Steve Scherf et al.
# Submitted via: EasyCDDAExtractor 4.5.0.1
#
DISCID=bc0a060f
DTITLE=Simon and Garfunkel
DYEAR=1981
DGENRE=Pop
TTITLE0=Bridge over troubled water
TTITLE1=The sound of silence
TTITLE2=Cecilia
TTITLE3=Homeward bound
TTITLE4=Scarboraugh fan
TTITLE5=El Condor Pasa
TTITLE6=Mrs. Robinson
TTITLE7=The Boxer
TTITLE8=Keep the customer satisfied
TTITLE9=59 th. Street Bridge Song
TTITLE10=I am a rock
TTITLE11=Wake up little Suzy
TTITLE12=America
TTITLE13=Richard Cory
TTITLE14=Ruby
EXTD=
EXTT0=
EXTT1=
EXTT2=
EXTT3=
EXTT4=
EXTT5=
EXTT6=
EXTT7=
EXTT8=
EXTT9=
EXTT10=
EXTT11=
EXTT12=
EXTT13=
EXTT14=
PLAYORDER=
